<?xml version="1.0" standalone="no"?>
<!DOCTYPE svg PUBLIC "-//W3C//DTD SVG 1.1//EN" "http://www.w3.org/Graphics/SVG/1.1/DTD/svg11.dtd" >
<!--
2013-9-30: Created.
-->
<svg>
<metadata>
Created by iconfont
</metadata>
<defs>

<font id="iconfont" horiz-adv-x="1024" >
  <font-face
    font-family="iconfont"
    font-weight="500"
    font-stretch="normal"
    units-per-em="1024"
    ascent="896"
    descent="-128"
  />
    <missing-glyph />
    
    <glyph glyph-name="news" unicode="&#58892;" d="M933.664064 591.532637c-8.333806 0-15.092743-6.755868-15.092743-15.090697l0-483.661581c0-34.355459-27.89942-62.310138-62.23339-62.402235-5.497201 0.162706-62.588477 5.087878-62.588477 73.708745L793.749454 722.186326c0 25.388227-20.659529 46.040592-46.044686 46.040592L124.275933 768.226918c-28.027333 0-50.830689-22.802332-50.830689-50.830689l0-573.044308c0-79.491449 64.671928-144.163377 144.164401-144.163377l638.550231 0 0.01842 0 0 0 0 0c51.048653 0.00921 92.580558 41.541115 92.580558 92.592838L948.758853 576.44194C948.753737 584.776769 941.997869 591.532637 933.664064 591.532637L933.664064 591.532637zM109.641631 148.56692 109.641631 711.539848c0 11.187807 9.097192 20.286022 20.282952 20.286022l612.473319 0c8.586562 0 15.579837-6.990205 15.579837-15.579837l0-618.344027c0-23.600511 9.033747-45.131897 23.829731-61.312414l-560.188512 0C159.875732 36.590616 109.641631 86.82267 109.641631 148.56692L109.641631 148.56692zM688.404174 543.739121 179.149705 543.739121c-8.333806 0-15.08865-6.758937-15.08865-15.093766 0-8.334829 6.755868-15.089673 15.08865-15.089673l509.253446 0c8.334829 0 15.092743 6.755868 15.092743 15.089673C703.496917 536.980183 696.743096 543.739121 688.404174 543.739121L688.404174 543.739121zM688.404174 396.872169 179.149705 396.872169c-8.333806 0-15.08865-6.758937-15.08865-15.093766 0-8.334829 6.755868-15.090697 15.08865-15.090697l509.253446 0c8.334829 0 15.092743 6.756891 15.092743 15.090697C703.496917 390.113231 696.743096 396.872169 688.404174 396.872169L688.404174 396.872169zM688.404174 250.004193 179.149705 250.004193c-8.333806 0-15.08865-6.758937-15.08865-15.09172 0-8.334829 6.755868-15.090697 15.08865-15.090697l509.253446 0c8.334829 0 15.092743 6.756891 15.092743 15.090697C703.496917 243.244232 696.743096 250.004193 688.404174 250.004193L688.404174 250.004193zM688.404174 250.004193"  horiz-adv-x="1024" />

    
    <glyph glyph-name="article" unicode="&#59351;" d="M188.8 60.799999999999955h644.8V707.2H188.8v-646.4z m32 614.4h580.8v-580.8H220.8V675.2zM278.4 475.2h465.6v142.4H278.4v-142.4z m16 128h433.6v-110.4H294.4v110.4zM275.2 156.79999999999995H496V424H275.2v-267.2z m16 251.2H480v-233.6H291.2V408zM555.2 424h188.8v-16H555.2zM555.2 361.6h188.8v-16H555.2zM555.2 299.20000000000005h188.8v-16H555.2zM555.2 172.79999999999995h188.8v-16H555.2zM555.2 235.20000000000005h188.8v-16H555.2z"  horiz-adv-x="1024" />

    
    <glyph glyph-name="shipin" unicode="&#59010;" d="M897.9 605.8c-18.6 11.7-158.1-53.9-158.1-53.9v6.9c0 57.3-48 103.7-107.3 103.7H219.3C160 662.4 112 616 112 558.7v-348.6c0-57.3 48-103.7 107.3-103.7h413.3c59.3 0 107.3 46.4 107.3 103.7v8.5s140.3-65.1 158.1-53.9c17.7 11.2 18.6 429.4-0.1 441.1z m-558.2-388V551.9l272.1-167-272.1-167.1z m0 0"  horiz-adv-x="1024" />

    
    <glyph glyph-name="arrow-down" unicode="&#58887;" d="M512.365 210.005l433.68 433.68c17.574 17.574 46.066 17.574 63.64 0 17.574-17.574 17.574-46.066 0-63.64L562.57 132.92999999999995c-27.727-27.727-72.682-27.727-100.41 0L15.046 580.0450000000001c-17.573 17.574-17.573 46.066 0 63.64 17.574 17.574 46.066 17.574 63.64 0l433.68-433.68z"  horiz-adv-x="1024" />

    
    <glyph glyph-name="arrow-top" unicode="&#58888;" d="M512.365 558.995l-433.68-433.68c-17.574-17.574-46.066-17.574-63.64 0-17.573 17.574-17.573 46.066 0 63.64L462.161 636.0699999999999c27.727 27.727 72.682 27.727 100.409 0l447.115-447.115c17.574-17.574 17.574-46.066 0-63.64-17.574-17.574-46.066-17.574-63.64 0l-433.68 433.68z"  horiz-adv-x="1024" />

    
    <glyph glyph-name="arrow-right" unicode="&#58889;" d="M686.86 383.5L253.18 817.1800000000001c-17.573 17.574-17.573 46.066 0 63.64 17.574 17.573 46.066 17.573 63.64 0l447.115-447.115c27.727-27.728 27.727-72.682 0-100.41L316.82-113.82000000000005c-17.574-17.573-46.066-17.573-63.64 0-17.573 17.574-17.573 46.066 0 63.64L686.86 383.5z"  horiz-adv-x="1024" />

    
    <glyph glyph-name="arrow-left" unicode="&#58890;" d="M337.87 383.5L771.55 817.1800000000001c17.574 17.574 17.574 46.066 0 63.64-17.573 17.573-46.066 17.573-63.64 0L260.796 433.705c-27.727-27.728-27.727-72.682 0-100.41l447.116-447.115c17.573-17.573 46.066-17.573 63.64 0 17.573 17.574 17.573 46.066 0 63.64L337.87 383.5z"  horiz-adv-x="1024" />

    
    <glyph glyph-name="sousuo-" unicode="&#58957;" d="M216.8 114.7C55.7 275.8 55.7 538 216.8 699.1s423.2 161.1 584.3 0 161.1-423.2 0-584.3-423.2-161.2-584.3-0.1z m530.9 530.9c-131.6 131.6-345.7 131.6-477.4 0-131.6-131.6-131.6-345.7 0-477.3 131.6-131.6 345.7-131.6 477.3 0 131.7 131.5 131.7 345.7 0.1 477.3zM890.2-51.9c-9.6 0-19.2 3.6-26.5 10.9L741.2 79.5c-14.9 14.7-15.1 38.6-0.4 53.5 14.7 14.9 38.6 15.1 53.5 0.4l122.5-120.5c14.9-14.7 15.1-38.6 0.4-53.5-7.5-7.5-17.2-11.3-27-11.3zM487.4 620.4c-7.1 7.1-11.3 16.9-11.1 27.7 0.6 20.9 17.9 37.4 38.8 36.8 72.9-1.9 141.5-31.4 193.1-83 14.8-14.8 14.8-38.7 0-53.5-14.8-14.8-38.7-14.8-53.5 0-37.8 37.8-88.1 59.5-141.6 60.8-10.1 0.4-19.1 4.6-25.7 11.2zM723.9 411.8c-5.5 5.5-9.4 12.8-10.6 21.1-1.5 10.2-3.9 20.5-7 30.5-6.2 20 4.9 41.2 24.9 47.4 20 6.2 41.2-4.9 47.4-24.9 4.3-13.7 7.5-27.7 9.6-41.7 3.1-20.6-11.1-39.9-31.7-43-12.5-1.9-24.4 2.4-32.6 10.6z"  horiz-adv-x="1024" />

    
    <glyph glyph-name="gouwuche-" unicode="&#58960;" d="M764 136.1H301.3c-15.5 0-29 10.8-32.3 26l-82.6 380.1c-2.1 9.8 0.3 20 6.6 27.8 6.3 7.8 15.7 12.3 25.7 12.3h384.7c18.3 0 33.1-14.8 33.1-33.1s-14.8-33.1-33.1-33.1H259.7l68.3-314h409.8l43.7 189.2c4.1 17.8 21.9 28.9 39.7 24.8 17.8-4.1 28.9-21.9 24.8-39.6l-49.6-214.9c-3.6-14.9-17-25.5-32.4-25.5zM301.3 136.1c-15.2 0-28.8 10.5-32.2 25.9L136.9 757c-4 17.8 7.3 35.5 25.1 39.4 17.8 4 35.5-7.3 39.4-25.1l132.2-595c4-17.8-7.3-35.5-25.1-39.4-2.5-0.6-4.9-0.8-7.2-0.8zM854.9 516.2H714.5c-18.3 0-33.1 14.8-33.1 33.1s14.8 33.1 33.1 33.1H855c18.3 0 33.1-14.8 33.1-33.1s-14.9-33.1-33.2-33.1zM784.7 446c-18.3 0-33.1 14.8-33.1 33.1V619.5c0 18.3 14.8 33.1 33.1 33.1s33.1-14.8 33.1-33.1V479c0-18.2-14.8-33-33.1-33zM400.4-29.2c-27.3 0-49.6 22.2-49.6 49.6 0 27.3 22.2 49.6 49.6 49.6s49.6-22.2 49.6-49.6c0-27.3-22.2-49.6-49.6-49.6z m0 66.1c-9.1 0-16.5-7.4-16.5-16.5s7.4-16.5 16.5-16.5 16.5 7.4 16.5 16.5c0.1 9.1-7.3 16.5-16.5 16.5zM681.4-29.2c-27.3 0-49.6 22.2-49.6 49.6 0 27.3 22.2 49.6 49.6 49.6 27.3 0 49.6-22.2 49.6-49.6 0-27.3-22.3-49.6-49.6-49.6z m0 66.1c-9.1 0-16.5-7.4-16.5-16.5s7.4-16.5 16.5-16.5 16.5 7.4 16.5 16.5-7.4 16.5-16.5 16.5z"  horiz-adv-x="1024" />

    
    <glyph glyph-name="tixing-" unicode="&#58961;" d="M588.3 14c0-42.1-34.2-76.3-76.3-76.3s-76.3 34.2-76.3 76.3M512 693c-25.2 0-45.8 20.6-45.8 45.8v45.8c0 25.2 20.6 45.8 45.8 45.8 25.2 0 45.8-20.6 45.8-45.8v-45.8c0-25.2-20.6-45.8-45.8-45.8zM420.5 354.9c-18.2 0-32.9 14.7-32.9 32.9V525.1c0 18.2 14.7 32.9 32.9 32.9s32.9-14.7 32.9-32.9v-137.3c-0.1-18.2-14.8-32.9-32.9-32.9zM792 42.1H232c-29.8 0-56.4 15.5-71.1 41.4-14.7 25.9-14.3 56.7 1 82.2l1.6 2.4 56.2 77.7V464.1c0 161.2 131.1 292.3 292.3 292.3 161.2 0 292.3-131.1 292.3-292.3v-218.2l57.8-80.1c15.3-25.6 15.7-56.3 1-82.2-14.7-26-41.3-41.5-71.1-41.5zM217.8 131c-3.5-6.8-1-12.8 0.3-15.1 1.4-2.4 5.5-8.1 13.8-8.1H792c8.4 0 12.5 5.6 13.8 8.1 1.3 2.3 3.9 8.3 0.3 15.1l-56 77.3c-7.7 10.6-11.7 23.1-11.7 36.2V464.1c0 124.9-101.6 226.5-226.5 226.5S285.4 589 285.4 464.1v-219.5c0-13-4-25.5-11.7-36.1L217.8 131z"  horiz-adv-x="1024" />

    
    <glyph glyph-name="cat_" unicode="&#59184;" d="M903.04 170.069333a42.666667 42.666667 0 1 0-14.08-84.138666l-129.024 21.504A340.181333 340.181333 0 0 0 512 0a340.181333 340.181333 0 0 0-247.936 107.434667l-129.024-21.504a42.666667 42.666667 0 0 0-14.08 84.138666l88.064 14.677334a337.877333 337.877333 0 0 0-34.090667 105.514666l-53.973333 9.002667a42.666667 42.666667 0 1 0 14.08 84.138667l35.626667-5.930667V768a42.752 42.752 0 0 0 72.832 30.165333L401.664 640h220.672l158.165333 158.165333A42.666667 42.666667 0 0 0 853.333333 768v-390.528l35.626667 5.930667a42.666667 42.666667 0 1 0 14.08-84.138667l-53.973333-9.002667a337.877333 337.877333 0 0 0-34.090667-105.514666l88.064-14.677334zM512 85.333333a254.122667 254.122667 0 0 1 137.6 40.490667l-16.64 2.773333a42.666667 42.666667 0 1 0 14.08 84.138667l78.08-13.013333a255.402667 255.402667 0 0 1 33.92 75.52l-112-18.645334a42.666667 42.666667 0 0 0-14.08 84.138667L768 363.264V665.002667l-97.834667-97.834667A42.538667 42.538667 0 0 0 640 554.666667H384a42.538667 42.538667 0 0 0-30.165333 12.501333L256 665.002667v-301.738667l135.04-22.528a42.666667 42.666667 0 1 0-14.08-84.138667l-112 18.645334c7.296-27.178667 18.688-52.650667 33.92-75.52l78.08 13.013333a42.666667 42.666667 0 1 0 14.08-84.138667l-16.64-2.773333A254.122667 254.122667 0 0 1 512 85.333333z m-85.333333 384a42.666667 42.666667 0 1 1 0-85.333333 42.666667 42.666667 0 0 1 0 85.333333m213.333333-42.666666a42.666667 42.666667 0 1 1-85.333333 0 42.666667 42.666667 0 0 1 85.333333 0m-128-85.333334a42.666667 42.666667 0 1 1 0-85.333333 42.666667 42.666667 0 0 1 0 85.333333"  horiz-adv-x="1024" />

    
    <glyph glyph-name="cat_litter_box" unicode="&#59188;" d="M778.496 85.333333H245.546667l-61.013334 213.333334h173.952A179.626667 179.626667 0 0 1 512 213.333333a179.669333 179.669333 0 0 1 153.557333 85.333334h173.909334l-61.013334-213.333334z m151.594667 281.685334a42.666667 42.666667 0 0 0 6.954666-37.418667l-85.333333-298.666667A42.666667 42.666667 0 0 0 810.666667 0H213.333333a42.666667 42.666667 0 0 0-41.002666 30.933333l-85.333334 298.666667A42.666667 42.666667 0 0 0 127.957333 384h256c16.213333 0 30.976-9.130667 38.229334-23.594667l4.48-9.002666A94.976 94.976 0 0 1 512 298.666667c36.394667 0 69.077333 20.224 85.333333 52.736l4.522667 9.002666A42.581333 42.581333 0 0 0 640 384h256a42.666667 42.666667 0 0 0 34.090667-16.981333z m-465.92 61.781333L343.466667 549.504a42.624 42.624 0 0 0 0 60.330667l60.330666 60.330666a127.701333 127.701333 0 0 0 145.28 24.618667l96.085334 96.085333a42.666667 42.666667 0 0 0 60.330666-60.330666L609.408 634.453333a127.786667 127.786667 0 0 0-24.576-145.322666l-60.330667-60.330667a42.666667 42.666667 0 0 0-60.373333 0z m0 181.034667l-30.208-30.165334 60.373333-60.373333 30.165333 30.165333a42.837333 42.837333 0 0 1 0 60.373334 42.752 42.752 0 0 1-60.373333 0z"  horiz-adv-x="1024" />

    
    <glyph glyph-name="cat_food_bag" unicode="&#59189;" d="M881.92 288c9.344-46.762667 14.08-94.592 14.08-142.250667V0a42.666667 42.666667 0 0 0-42.666667-42.666667H170.666667a42.666667 42.666667 0 0 0-42.666667 42.666667v145.749333c0 47.658667 4.736 95.488 14.08 142.250667l69.845333 349.269333-39.082666 117.248A42.666667 42.666667 0 0 0 213.333333 810.666667h597.333334a42.666667 42.666667 0 0 0 40.490666-56.149334l-39.082666-117.248 69.845333-349.269333zM751.488 725.333333H272.512l14.250667-42.666666h450.474666l14.250667 42.666666zM810.666667 42.666667v103.082666c0 42.026667-4.181333 84.266667-12.416 125.525334L733.013333 597.333333H290.986667l-65.237334-326.101333A642.090667 642.090667 0 0 1 213.333333 145.749333V42.666667h597.333334z m-256 426.666666a169.429333 169.429333 0 0 0 160.682666-114.218666 42.368 42.368 0 0 0 0-27.562667A169.429333 169.429333 0 0 0 554.666667 213.333333a169.557333 169.557333 0 0 0-144.981334 81.706667A42.666667 42.666667 0 0 1 384 256a42.666667 42.666667 0 0 0-85.333333 0c0 32.896 12.842667 62.634667 33.28 85.333333A127.146667 127.146667 0 0 0 298.666667 426.666667a42.666667 42.666667 0 0 0 85.333333 0 42.666667 42.666667 0 0 1 25.685333-39.04A169.557333 169.557333 0 0 0 554.666667 469.333333z m0-170.666666a84.48 84.48 0 0 1 73.770666 42.666666c-14.677333 26.026667-42.666667 42.666667-73.770666 42.666667a84.48 84.48 0 0 1-73.770667-42.666667c14.677333-26.026667 42.666667-42.666667 73.770667-42.666666z"  horiz-adv-x="1024" />

    
    <glyph glyph-name="cat_walk" unicode="&#59190;" d="M768 298.666667c0-47.061333-38.272-85.333333-85.333333-85.333334h-256c-47.061333 0-85.333333 38.272-85.333334 85.333334s38.272 85.333333 85.333334 85.333333h341.333333v-85.333333z m-170.666667 346.922666l61.653334-41.088a42.666667 42.666667 0 0 1 47.36 0L768 645.589333V469.333333h-170.666667V645.589333z m233.472 117.376a42.666667 42.666667 0 0 1-43.818666-2.133333L682.666667 691.285333l-104.32 69.546667A42.581333 42.581333 0 0 1 512 725.333333v-256h-85.333333a169.216 169.216 0 0 1-111.701334-42.666666H298.666667c-23.509333 0-42.666667 19.157333-42.666667 42.666666V554.666667c0 23.509333 19.157333 42.666667 42.666667 42.666666 23.509333 0 42.666667-19.157333 42.666666-42.666666a42.666667 42.666667 0 0 1 85.333334 0c0 70.570667-57.429333 128-128 128S170.666667 625.237333 170.666667 554.666667v-85.333334c0-58.410667 39.552-107.264 93.098666-122.538666A168.106667 168.106667 0 0 1 256 298.666667c0-43.605333 16.896-82.986667 43.904-113.194667l-79.402667-119.125333a42.666667 42.666667 0 0 1 70.997334-47.36l79.402666 119.125333c4.309333-1.493333 8.661333-2.901333 13.098667-4.053333V42.666667a42.666667 42.666667 0 0 1 85.333333 0v85.333333h85.333334v-85.333333a42.666667 42.666667 0 0 1 85.333333 0v85.333333h42.666667v-85.333333a42.666667 42.666667 0 0 1 85.333333 0v109.098666c50.773333 29.568 85.333333 84.010667 85.333333 146.901334V725.333333a42.666667 42.666667 0 0 1-22.528 37.632z"  horiz-adv-x="1024" />

    
    <glyph glyph-name="costume" unicode="&#59191;" d="M802.730667 519.68a346.197333 346.197333 0 0 1-49.365334 63.061333 343.296 343.296 0 0 1-63.018666 49.365334A84.522667 84.522667 0 0 0 768 682.666667c47.018667 0 85.333333-38.272 85.333333-85.333334 0-34.688-20.608-64.426667-50.602666-77.653333zM768 128c0-23.509333-19.114667-42.666667-42.666667-42.666667h-42.666666v256a169.258667 169.258667 0 0 1-50.005334 120.618667A169.386667 169.386667 0 0 1 512 512c-94.165333 0-170.666667-76.544-170.666667-170.666667v-256H298.666667c-23.594667 0-42.666667 19.157333-42.666667 42.666667v213.333333c0 141.184 114.773333 256 256 256a254.506667 254.506667 0 0 0 231.296-146.816 254.72 254.72 0 0 0 24.661333-109.226666v-213.333334z m-341.333333 42.666667v170.666666c0 47.061333 38.314667 85.333333 85.333333 85.333334 22.741333 0 44.117333-8.874667 60.330667-25.045334 16.170667-16.128 25.045333-37.546667 25.045333-60.288v-170.666666h-170.666667zM170.666667 597.333333c0 47.061333 38.272 85.333333 85.333333 85.333334 34.730667 0 64.554667-20.693333 77.738667-50.816a342.741333 342.741333 0 0 1-112.213334-112.213334A84.565333 84.565333 0 0 0 170.666667 597.290667z m768 0c0 94.122667-76.544 170.666667-170.666667 170.666667a169.386667 169.386667 0 0 1-155.008-100.48 344.106667 344.106667 0 0 1-201.941333-0.085333A169.386667 169.386667 0 0 1 256 768C161.834667 768 85.333333 691.456 85.333333 597.333333a169.386667 169.386667 0 0 1 100.565334-155.050666A340.096 340.096 0 0 1 170.666667 341.333333v-213.333333c0-70.570667 57.429333-128 128-128h85.333333a42.666667 42.666667 0 0 1 42.666667 42.666667v42.666666h170.666666v-42.666666a42.666667 42.666667 0 0 1 42.666667-42.666667h85.333333c70.570667 0 128 57.429333 128 128v213.333333c0 34.773333-5.248 68.693333-15.146666 100.992A169.386667 169.386667 0 0 1 938.666667 597.333333z"  horiz-adv-x="1024" />

    
    <glyph glyph-name="dog_" unicode="&#59192;" d="M739.072 638.592C850.218667 631.381333 938.666667 539.562667 938.666667 426.666667v-85.333334c0-70.570667-57.429333-128-128-128-17.194667 0-33.578667 3.541333-48.597334 9.728C737.066667 107.904 634.538667 21.333333 512 21.333333s-225.066667 86.570667-250.069333 201.728A127.274667 127.274667 0 0 0 213.333333 213.333333c-70.570667 0-128 57.429333-128 128v85.333334c0 112.896 88.448 204.714667 199.594667 211.925333C321.749333 702.805333 390.186667 746.666667 469.333333 746.666667h85.333334c79.146667 0 147.584-43.861333 184.405333-108.074667zM853.333333 341.333333v85.333334a128.256 128.256 0 0 1-85.333333 120.704V341.333333c0-23.509333 19.157333-42.666667 42.666667-42.666666 23.509333 0 42.666667 19.157333 42.666666 42.666666z m-170.666666-64v256c0 70.570667-57.429333 128-128 128h-85.333334c-70.570667 0-128-57.429333-128-128v-256c0-79.274667 54.613333-145.536 128-164.608V298.666667a42.666667 42.666667 0 0 0 0 85.333333h85.333334a42.666667 42.666667 0 0 0 0-85.333333v-185.941334c73.386667 19.072 128 85.333333 128 164.608zM213.333333 298.666667c23.509333 0 42.666667 19.157333 42.666667 42.666666V547.370667A128.256 128.256 0 0 1 170.666667 426.666667v-85.333334c0-23.509333 19.157333-42.666667 42.666666-42.666666z m213.333334 213.333333a42.666667 42.666667 0 1 0 0-85.333333 42.666667 42.666667 0 0 0 0 85.333333z m170.666666 0a42.666667 42.666667 0 1 0 0-85.333333 42.666667 42.666667 0 0 0 0 85.333333z"  horiz-adv-x="1024" />

    
    <glyph glyph-name="dog_food_bag" unicode="&#59193;" d="M881.92 288c9.344-46.762667 14.08-94.592 14.08-142.250667V0a42.666667 42.666667 0 0 0-42.666667-42.666667H170.666667a42.666667 42.666667 0 0 0-42.666667 42.666667v145.749333c0 47.658667 4.736 95.488 14.08 142.250667l69.845333 349.269333-39.082666 117.248A42.666667 42.666667 0 0 0 213.333333 810.666667h597.333334a42.666667 42.666667 0 0 0 40.490666-56.149334l-39.082666-117.248 69.845333-349.269333zM810.666667 42.666667v103.082666c0 42.026667-4.181333 84.266667-12.416 125.525334L733.013333 597.333333H290.986667l-65.237334-326.101333A642.090667 642.090667 0 0 1 213.333333 145.749333V42.666667h597.333334zM751.488 725.333333l-14.250667-42.666666H286.762667l-14.250667 42.666666h478.976zM512 426.666667a42.666667 42.666667 0 1 0 0 85.333333 42.666667 42.666667 0 0 0 0-85.333333z m128 42.666666a42.666667 42.666667 0 1 0 0-85.333333 42.666667 42.666667 0 0 0 0 85.333333z m-256-85.333333a42.666667 42.666667 0 1 0 0 85.333333 42.666667 42.666667 0 0 0 0-85.333333z m128 0c94.122667 0 170.666667-76.544 170.666667-170.666667 0-47.061333-38.272-85.333333-85.333334-85.333333h-170.666666c-47.061333 0-85.333333 38.272-85.333334 85.333333 0 94.122667 76.544 170.666667 170.666667 170.666667z m-85.333333-170.666667h170.538666A85.248 85.248 0 1 1 426.666667 213.333333z"  horiz-adv-x="1024" />

    
    <glyph glyph-name="dog_food_bowl" unicode="&#59194;" d="M225.322667 85.333333l64 256H734.72l64-256H225.322667z m670.72 0a42.666667 42.666667 0 0 0 0-85.333333H128a42.666667 42.666667 0 1 0 0 85.333333h9.301333l77.269334 309.034667A42.666667 42.666667 0 0 0 256 426.666667h512a42.666667 42.666667 0 0 0 41.386667-32.298667L886.613333 85.333333H896zM298.666667 469.333333a42.624 42.624 0 0 0-30.165334 72.832l42.666667 42.666667a42.624 42.624 0 1 0 60.330667-60.330667l-42.666667-42.666666A42.538667 42.538667 0 0 0 298.666667 469.333333z m384 0a42.666667 42.666667 0 1 0 0 85.333334h42.666666a42.666667 42.666667 0 1 0 0-85.333334h-42.666666z m-115.498667 140.501334l-42.666667 42.666666a42.624 42.624 0 1 0 60.330667 60.330667l42.666667-42.666667a42.624 42.624 0 1 0-60.330667-60.330666z m-85.333333-128l-42.666667 42.666666a42.624 42.624 0 1 0 60.330667 60.330667l42.666666-42.666667a42.624 42.624 0 1 0-60.330666-60.330666z"  horiz-adv-x="1024" />

    
    <glyph glyph-name="dog_disabled" unicode="&#59195;" d="M725.333333 768c117.632 0 213.333333-95.744 213.333334-213.333333 0-34.261333-13.482667-66.432-37.888-90.581334A125.909333 125.909333 0 0 0 810.666667 426.666667v-298.666667c0-70.570667-57.429333-128-128-128-70.613333 0-128 57.429333-128 128v42.666667h-47.018667a213.205333 213.205333 0 0 0-177.237333-167.424c-2.517333-0.512-4.778667-1.493333-7.424-1.493334-0.853333 0-1.621333 0.426667-2.517334 0.426667-7.253333-0.682667-14.293333-2.133333-21.76-2.133333-117.674667 0-213.333333 95.658667-213.333333 213.333333 0 100.821333 70.485333 185.045333 164.693333 207.189333A127.786667 127.786667 0 0 1 128 512a42.666667 42.666667 0 1 0 0 85.333333c82.474667 0 153.386667-47.658667 188.885333-116.394666A211.797333 211.797333 0 0 0 426.666667 512.085333h85.333333V768a42.666667 42.666667 0 1 0 85.333333 0v-23.808a168.533333 168.533333 0 0 0 85.333334 23.808h42.666666z m115.2-243.498667A41.984 41.984 0 0 1 853.333333 554.666667c0 70.528-57.429333 128-128 128h-42.666666c-47.061333 0-85.333333-38.272-85.333334-85.333334v-85.333333h213.333334a41.813333 41.813333 0 0 1 29.866666 12.458667zM725.333333 324.992v101.674667h-298.666666c-19.456 0-37.973333-5.418667-54.997334-13.696 68.608-25.216 121.173333-84.053333 135.978667-157.013334h79.573333L725.333333 325.077333zM682.666667 85.333333a42.666667 42.666667 0 0 1 42.666666 42.666667v101.632l-85.333333-42.666667V128a42.666667 42.666667 0 0 1 42.666667-42.666667z m-384 0c70.570667 0 128 57.429333 128 128 0 70.613333-57.429333 128-128 128-70.613333 0-128-57.386667-128-128 0-70.570667 57.386667-128 128-128z"  horiz-adv-x="1024" />

    
    <glyph glyph-name="dog_help" unicode="&#59196;" d="M341.333333 170.666667a42.666667 42.666667 0 1 0-85.333333 0 42.666667 42.666667 0 0 0 85.333333 0z m128 42.666666a42.666667 42.666667 0 1 0 0-85.333333 42.666667 42.666667 0 0 0 0 85.333333z m298.666667 213.333334a42.666667 42.666667 0 1 0 0-85.333334 42.666667 42.666667 0 0 0 0 85.333334z m42.666667 384c70.570667 0 128-57.429333 128-128s-57.429333-128-128-128v-42.666667a42.666667 42.666667 0 0 0-85.333334 0V597.333333a42.666667 42.666667 0 0 0 42.666667 42.666667h42.666667c23.509333 0 42.666667 19.157333 42.666666 42.666667 0 23.509333-19.157333 42.666667-42.666666 42.666666h-42.666667c-23.509333 0-42.666667-19.157333-42.666667-42.666666a42.666667 42.666667 0 0 0-85.333333 0c0 70.570667 57.429333 128 128 128h42.666667z m-213.333334-341.333334c47.061333 0 85.333333-38.272 85.333334-85.333333v-42.666667a126.72 126.72 0 0 0-30.890667-82.389333c20.096-40.405333 30.890667-84.906667 30.890667-130.944v-128a42.666667 42.666667 0 0 0-85.333334 0v128c0 30.72-6.656 60.501333-19.2 87.722667A125.44 125.44 0 0 0 554.666667 213.333333a127.872 127.872 0 0 0-127.488 123.008 211.797333 211.797333 0 0 1-86.357334 0A127.872 127.872 0 0 0 213.333333 213.333333a125.44 125.44 0 0 0-23.466666 2.389334A209.152 209.152 0 0 1 170.666667 128v-128a42.666667 42.666667 0 0 0-85.333334 0v128c0 46.037333 10.794667 90.538667 30.890667 130.944A126.72 126.72 0 0 0 85.333333 341.333333v42.666667c0 47.061333 38.272 85.333333 85.333334 85.333333h128a42.666667 42.666667 0 0 0 42.666666-42.666666v-3.712a300.928 300.928 0 0 0 85.333334 0V426.666667a42.666667 42.666667 0 0 0 42.666666 42.666666h128z m-170.666666-384a42.666667 42.666667 0 0 0 0-85.333333 42.666667 42.666667 0 0 0-85.333334 0 42.666667 42.666667 0 0 0 0 85.333333h85.333334z m85.333333 256c0-23.509333 19.157333-42.666667 42.666667-42.666666 23.509333 0 42.666667 19.157333 42.666666 42.666666v42.666667h-85.333333v-42.666667z m-256 0v42.666667H170.666667v-42.666667c0-23.509333 19.157333-42.666667 42.666666-42.666666 23.509333 0 42.666667 19.157333 42.666667 42.666666z"  horiz-adv-x="1024" />

    
    <glyph glyph-name="dog_house" unicode="&#59197;" d="M768 85.333333h-85.333333v170.666667c0 94.122667-76.544 170.666667-170.666667 170.666667s-170.666667-76.544-170.666667-170.666667v-170.666667H256v355.370667l256 227.541333 256-227.541333V85.333333z m-341.333333 0v170.666667c0 47.061333 38.272 85.333333 85.333333 85.333333s85.333333-38.272 85.333333-85.333333v-170.666667h-170.666666z m497.706666 330.581334l-384 341.333333a42.794667 42.794667 0 0 1-56.746666 0l-384-341.333333a42.794667 42.794667 0 0 1-3.541334-60.288c15.701333-17.578667 42.581333-19.157333 60.288-3.541334L170.666667 364.842667V42.666667a42.666667 42.666667 0 0 1 42.666666-42.666667h597.333334a42.666667 42.666667 0 0 1 42.666666 42.666667v322.176l14.293334-12.757334a42.666667 42.666667 0 0 1 60.288 3.541334 42.794667 42.794667 0 0 1-3.541334 60.288z"  horiz-adv-x="1024" />

    
    <glyph glyph-name="gift" unicode="&#59198;" d="M768 128a42.666667 42.666667 0 0 0-42.666667-42.666667h-85.333333v298.666667h128v-256z m-298.666667-42.666667h85.333334v298.666667h-85.333334v-298.666667z m-170.666666 0a42.666667 42.666667 0 0 0-42.666667 42.666667v256h128v-298.666667H298.666667zM213.333333 512a42.666667 42.666667 0 0 0 42.666667 42.666667h128v-85.333334H213.333333V512z m170.666667 170.666667a42.666667 42.666667 0 0 0 85.333333 0v-42.666667h-42.666666a42.666667 42.666667 0 0 0-42.666667 42.666667z m213.333333 42.666666a42.666667 42.666667 0 0 0 0-85.333333h-42.666666V682.666667a42.666667 42.666667 0 0 0 42.666666 42.666666z m-128-170.666666h85.333334v-85.333334h-85.333334V554.666667z m341.333334-42.666667v-42.666667h-170.666667V554.666667h128a42.666667 42.666667 0 0 0 42.666667-42.666667z m-42.666667 128h-50.56c4.821333 13.397333 7.893333 27.605333 7.893333 42.666667 0 70.570667-57.429333 128-128 128a127.146667 127.146667 0 0 1-85.333333-33.28A127.146667 127.146667 0 0 1 426.666667 810.666667C356.096 810.666667 298.666667 753.237333 298.666667 682.666667c0-15.061333 3.072-29.269333 7.893333-42.666667H256C185.429333 640 128 582.570667 128 512v-85.333333a42.666667 42.666667 0 0 1 42.666667-42.666667v-256c0-70.570667 57.429333-128 128-128h426.666666c70.570667 0 128 57.429333 128 128v256a42.666667 42.666667 0 0 1 42.666667 42.666667V512c0 70.570667-57.429333 128-128 128z"  horiz-adv-x="1024" />

    
    <glyph glyph-name="prize" unicode="&#59199;" d="M754.389333 472.96A254.208 254.208 0 0 1 768.042667 554.666667V640h42.666666c23.466667 0 42.666667-19.114667 42.666667-42.666667a128.042667 128.042667 0 0 0-98.986667-124.373333M512.042667 384c-94.165333 0-170.666667 76.544-170.666667 170.666667V682.666667h341.333333v-128c0-94.122667-76.629333-170.666667-170.666666-170.666667M170.666667 597.333333c0 23.552 19.114667 42.666667 42.666666 42.666667h42.666667v-85.333333c0-28.586667 4.864-55.978667 13.568-81.706667A128.042667 128.042667 0 0 0 170.666667 597.333333m469.333333-469.333333v-42.666667H384v42.666667c0 23.552 19.2 42.666667 42.666667 42.666667h170.666666c23.509333 0 42.666667-19.114667 42.666667-42.666667m170.666667 597.333333h-42.666667a42.666667 42.666667 0 0 1-42.666667 42.666667H298.666667a42.666667 42.666667 0 0 1-42.666667-42.666667H213.333333C142.762667 725.333333 85.333333 667.904 85.333333 597.333333c0-117.632 95.701333-213.333333 213.333334-213.333333h23.04A255.573333 255.573333 0 0 1 469.333333 302.506667V256h-42.666666c-70.570667 0-128-57.429333-128-128v-85.333333a42.666667 42.666667 0 0 1 42.666666-42.666667h341.333334a42.666667 42.666667 0 0 1 42.666666 42.666667v85.333333c0 70.570667-57.429333 128-128 128h-42.666666v46.506667A255.36 255.36 0 0 1 702.293333 384H725.333333c117.632 0 213.333333 95.701333 213.333334 213.333333 0 70.570667-57.429333 128-128 128"  horiz-adv-x="1024" />

    
    <glyph glyph-name="track" unicode="&#59203;" d="M768.341333 705.066667a357.546667 357.546667 0 0 0 106.325334-255.232 357.333333 357.333333 0 0 0-106.325334-255.146667l-226.261333-224.938667a42.325333 42.325333 0 0 0-30.08-12.373333 42.325333 42.325333 0 0 0-30.08 12.373333l-226.261333 224.938667a357.333333 357.333333 0 0 0-106.325334 255.146667 357.376 357.376 0 0 0 106.325334 255.232c141.354667 140.501333 371.328 140.501333 512.682666 0z m-60.16-449.877334a272.554667 272.554667 0 0 1 81.152 194.645334 272.810667 272.810667 0 0 1-81.152 194.730666A277.461333 277.461333 0 0 1 512 725.205333a277.333333 277.333333 0 0 1-196.181333-80.64A272.64 272.64 0 0 1 234.666667 449.834667c0-73.514667 28.8-142.634667 81.152-194.645334L512 60.202667l196.181333 194.986666zM512 554.666667a42.666667 42.666667 0 1 0 0 85.333333 42.666667 42.666667 0 0 0 0-85.333333z m128 42.666666a42.666667 42.666667 0 1 0 0-85.333333 42.666667 42.666667 0 0 0 0 85.333333zM384 512a42.666667 42.666667 0 1 0 0 85.333333 42.666667 42.666667 0 0 0 0-85.333333z m128 0c94.122667 0 170.666667-76.544 170.666667-170.666667 0-47.061333-38.272-85.333333-85.333334-85.333333h-170.666666c-47.061333 0-85.333333 38.272-85.333334 85.333333 0 94.122667 76.544 170.666667 170.666667 170.666667z m-85.333333-170.666667h170.538666c0.128 47.104-38.144 85.333333-85.205333 85.333334-47.061333 0-85.333333-38.272-85.333333-85.333334z"  horiz-adv-x="1024" />

    
    <glyph glyph-name="ellipsis" unicode="&#59126;" d="M269.333333 448a56 56 0 1 0 0-112 56 56 0 0 0 0 112z m242.773334 0a56 56 0 1 0 0-112 56 56 0 0 0 0 112z m242.773333 0a56 56 0 1 0 0-112 56 56 0 0 0 0 112z"  horiz-adv-x="1024" />

    


  </font>
</defs>
</svg>
